<svg enable-background="new 0 0 200 50" viewBox="0 0 200 50" xmlns="http://www.w3.org/2000/svg" xmlns:xlink="http://www.w3.org/1999/xlink"><linearGradient id="a" gradientTransform="matrix(52.1202 25.7774 24.3041 -55.2798 19296.4277 94658.7266)" gradientUnits="userSpaceOnUse" x1="-964.4448" x2="-963.6745" y1="1270.2437" y2="1270.2437"><stop offset="0" stop-color="#006678"/><stop offset="1" stop-color="#4fa8ff"/></linearGradient><path d="m-5.09-23.56c.07.12.11.24.11.36 0 .14-.05.26-.15.35-.1.1-.23.15-.39.15-.21 0-.37-.09-.49-.27l-1.86-2.97h-.19-1.38v2.69c0 .15-.05.29-.16.39-.1.11-.24.16-.4.16-.16 0-.29-.05-.4-.16-.11-.11-.16-.24-.16-.39v-7.3c0-.16.05-.3.16-.41.11-.1.24-.15.4-.15h1.94c.53 0 1 .11 1.43.33.42.23.75.54.99.94.23.41.35.87.35 1.38 0 .51-.13.97-.39 1.36-.26.4-.61.69-1.06.89zm-4.35-3.42h1.38c.49 0 .89-.14 1.21-.42.31-.28.47-.64.47-1.08 0-.47-.16-.86-.47-1.16-.32-.3-.72-.45-1.21-.45h-1.38zm8.26-1.66c.55 0 1.06.13 1.5.39.45.26.81.62 1.07 1.08.26.46.39.97.39 1.53v2.4c0 .16-.05.29-.15.39-.11.11-.24.16-.39.16-.16 0-.29-.05-.39-.16-.11-.1-.16-.23-.16-.39v-.39c-.25.31-.56.55-.92.72-.36.17-.75.26-1.16.26-.52 0-.99-.13-1.41-.39-.42-.26-.75-.62-.99-1.08-.24-.46-.36-.97-.36-1.53 0-.56.13-1.07.39-1.53.26-.46.61-.82 1.07-1.08.45-.25.96-.38 1.51-.38zm0 5.01c.36 0 .69-.09.98-.26.29-.18.52-.42.69-.72.16-.31.25-.65.25-1.03 0-.38-.08-.72-.25-1.03-.17-.31-.4-.55-.69-.73-.29-.17-.62-.26-.98-.26-.36 0-.69.09-.98.26-.29.18-.52.42-.69.73-.17.31-.25.65-.25 1.03 0 .38.08.72.25 1.03.17.3.4.54.69.72.29.18.62.26.98.26zm8.52-.08c.34 0 .51.17.51.51 0 .33-.17.5-.51.5h-3.67c-.34 0-.51-.17-.51-.5 0-.14.03-.26.09-.35l3.06-4.04h-2.75c-.34 0-.51-.17-.51-.51 0-.33.17-.5.51-.5h3.67c.34 0 .51.17.51.5 0 .14-.03.26-.1.35l-3.04 4.04zm4.58-4.93c.57 0 1.08.13 1.53.39.45.25.8.61 1.06 1.06.26.45.39.97.39 1.55 0 .58-.13 1.09-.38 1.54-.25.46-.6.81-1.05 1.06-.45.26-.97.39-1.54.39-.58 0-1.09-.13-1.54-.39-.45-.25-.8-.61-1.06-1.06-.25-.45-.38-.97-.38-1.54 0-.58.13-1.1.38-1.55.25-.46.6-.81 1.06-1.06.44-.26.96-.39 1.53-.39zm0 .97c-.36 0-.69.09-.99.26-.29.17-.52.41-.69.72-.16.31-.25.66-.25 1.05 0 .39.08.74.25 1.04.16.31.39.55.69.72.29.17.62.26.99.26.36 0 .69-.09.99-.26.29-.17.52-.41.68-.72.16-.3.25-.65.25-1.04 0-.39-.08-.73-.25-1.05-.16-.31-.39-.55-.68-.72-.29-.17-.62-.26-.99-.26zm7.5-.99c.38 0 .68.06.89.18.22.11.32.26.32.43 0 .05 0 .08-.01.11-.07.23-.21.34-.43.34-.04 0-.09-.01-.16-.02-.29-.05-.52-.08-.7-.08-.52 0-.94.12-1.26.35-.31.24-.47.56-.47.96v3.14c0 .17-.05.31-.14.4-.09.09-.22.14-.4.14-.17 0-.31-.04-.4-.13-.09-.09-.14-.23-.14-.41v-4.81c0-.17.05-.31.14-.4.09-.09.23-.14.4-.14.36 0 .54.18.54.54v.2c.22-.25.48-.45.79-.59.33-.14.67-.21 1.03-.21z" fill="#007fdb" transform="matrix(3.7 0 0 3.7 111.649141 124.488495)"/><path d="m-71.42-399.63c-4.61 0-8.35 3.74-8.35 8.36v50.13c0 4.61 3.74 8.35 8.35 8.35 4.61 0 8.35-3.74 8.36-8.35v-50.13c-.01-4.62-3.75-8.36-8.36-8.36zm27.85-36.2c-4.61 0-8.35 3.74-8.35 8.35v122.54c0 4.61 3.74 8.35 8.35 8.35 4.61 0 8.35-3.74 8.36-8.35v-122.54c0-4.61-3.74-8.35-8.36-8.35zm27.85-27.86c-4.62 0-8.36 3.74-8.36 8.36v178.25c0 4.62 3.74 8.36 8.36 8.36s8.36-3.74 8.36-8.36v-178.25c0-4.61-3.74-8.35-8.36-8.36zm27.85 48.75c-4.61 0-8.35 3.74-8.36 8.35v80.77c0 4.61 3.74 8.36 8.36 8.36 4.61 0 8.36-3.74 8.36-8.36v-80.77c0-4.61-3.74-8.35-8.36-8.35zm27.85-48.75c-4.61 0-8.35 3.74-8.35 8.36v178.25c0 4.61 3.74 8.35 8.36 8.35 4.61 0 8.35-3.74 8.35-8.35v-178.25c0-4.61-3.74-8.35-8.36-8.36zm27.86 41.78c-4.61 0-8.35 3.74-8.35 8.36v94.69c-.11 4.61 3.54 8.44 8.16 8.55 4.61.11 8.44-3.54 8.55-8.16 0-.13 0-.26 0-.39v-94.69c-.01-4.62-3.75-8.36-8.36-8.36zm27.85 23.67c-4.61 0-8.35 3.74-8.36 8.36v47.35c.08 4.61 3.88 8.29 8.49 8.22 4.51-.08 8.14-3.71 8.22-8.22v-47.35c0-4.61-3.74-8.35-8.35-8.36z" fill="url(#a)" transform="matrix(.24099452 0 0 .24099452 31.986784 113.259062)"/></svg>