<?xml version="1.0" encoding="utf-8"?>
<!-- Generator: Adobe Illustrator 23.1.0, SVG Export Plug-In . SVG Version: 6.00 Build 0)  -->
<svg version="1.1" id="Layer_1" xmlns="http://www.w3.org/2000/svg" xmlns:xlink="http://www.w3.org/1999/xlink" x="0px" y="0px"
	 viewBox="0 0 479.9 94.5" style="enable-background:new 0 0 479.9 94.5;" xml:space="preserve">
<style type="text/css">
	.st0{fill:#231F20;}
	.st1{font-family:'Merriweather-Regular';}
	.st2{font-size:81px;}
</style>
<g>
	<path class="st0" d="M52.8,0C64.4,23.1,76,46.1,87.6,69.3c-0.3,0-0.5,0-0.7,0C81,69.2,75,69.2,69.1,69.1c-0.4,0-0.6-0.1-0.8-0.5
		c-7.9-17.2-15.8-34.5-23.6-51.7c-0.1-0.2-0.1-0.5,0-0.7c2.7-5.3,5.3-10.6,8-15.8C52.7,0.3,52.7,0.2,52.8,0z"/>
	<path class="st0" d="M73.7,80.6L73.7,80.6c-1.6-3.6-3.3-7.2-4.9-10.8c-0.2-0.5-0.6-0.5-1-0.5c-9.5,0-38.4-0.1-47.9-0.1
		c-0.7,0-1.4,0-2,0c4.7-9.4,9.4-18.8,14.2-28.2c4-8.1,8.1-16.3,12.1-24.4c0.1-0.3,0.1-0.7,0-1C42.5,11.8,40.7,8,39,4.2
		c-0.1-0.2-0.2-0.4-0.4-0.8C25.6,29.2,12.9,54.8,0,80.6H73.7z"/>
</g>
<text transform="matrix(1 0 0 1 93.5634 72.4502)" class="st0 st1 st2">Delta One</text>
</svg>
